REM DIRINDEX 1\6,1\2\7,1\2\8,1\2\9,1\3\10,1\3\11,1\4\12,1\4\13,1\4\14,1\5\15,1\5\16,1\5\17
REM DIRNAME folder01,folder02,folder03,folder04,folder05,folder06,folder07,folder08,folder09,folder10,folder11,folder12,folder13,folder14,folder15,folder16,folder17
TITLE ""
FILE "P2Q_k_011-020.mp3" MP3
  TRACK 01 AUDIO
    TITLE "15:cjc040_1289"
    INDEX 01 00:00:00
  TRACK 02 AUDIO
    TITLE "0:"
    INDEX 01 00:01:40
  TRACK 03 AUDIO
    TITLE "16:cjc040_1290"
    INDEX 01 00:02:18
  TRACK 04 AUDIO
    TITLE "0:"
    INDEX 01 00:05:22
  TRACK 05 AUDIO
    TITLE "17:cjc040_1291"
    INDEX 01 00:05:73
  TRACK 06 AUDIO
    TITLE "17:cjc040_1292"
    INDEX 01 00:08:66
  TRACK 07 AUDIO
    TITLE "0:"
    INDEX 01 00:12:22
  TRACK 08 AUDIO
    TITLE "15:cjc040_1293"
    INDEX 01 00:12:73
  TRACK 09 AUDIO
    TITLE "0:"
    INDEX 01 00:14:29
  TRACK 10 AUDIO
    TITLE "16:cjc040_1294"
    INDEX 01 00:15:05
  TRACK 11 AUDIO
    TITLE "0:"
    INDEX 01 00:16:48
  TRACK 12 AUDIO
    TITLE "17:cjc040_1295"
    INDEX 01 00:17:18
  TRACK 13 AUDIO
    TITLE "17:cjc040_1296"
    INDEX 01 00:21:19
  TRACK 14 AUDIO
    TITLE "0:"
    INDEX 01 00:25:43
  TRACK 15 AUDIO
    TITLE "15:cjc040_1297"
    INDEX 01 00:26:26
  TRACK 16 AUDIO
    TITLE "0:"
    INDEX 01 00:28:13
  TRACK 17 AUDIO
    TITLE "16:cjc040_1298"
    INDEX 01 00:28:64
  TRACK 18 AUDIO
    TITLE "0:"
    INDEX 01 00:30:34
  TRACK 19 AUDIO
    TITLE "17:cjc040_1299"
    INDEX 01 00:31:02
  TRACK 20 AUDIO
    TITLE "17:cjc040_1300"
    INDEX 01 00:36:21
  TRACK 21 AUDIO
    TITLE "0:"
    INDEX 01 00:38:61
  TRACK 22 AUDIO
    TITLE "15:cjc040_1301"
    INDEX 01 00:39:29
  TRACK 23 AUDIO
    TITLE "0:"
    INDEX 01 00:40:52
  TRACK 24 AUDIO
    TITLE "16:cjc040_1302"
    INDEX 01 00:41:32
  TRACK 25 AUDIO
    TITLE "0:"
    INDEX 01 00:42:31
  TRACK 26 AUDIO
    TITLE "17:cjc040_1303"
    INDEX 01 00:43:05
  TRACK 27 AUDIO
    TITLE "17:cjc040_1304"
    INDEX 01 00:46:25
  TRACK 28 AUDIO
    TITLE "0:"
    INDEX 01 00:48:28
  TRACK 29 AUDIO
    TITLE "15:cjc040_1305"
    INDEX 01 00:49:10
  TRACK 30 AUDIO
    TITLE "0:"
    INDEX 01 00:50:35
  TRACK 31 AUDIO
    TITLE "16:cjc040_1306"
    INDEX 01 00:51:15
  TRACK 32 AUDIO
    TITLE "0:"
    INDEX 01 00:52:28
  TRACK 33 AUDIO
    TITLE "17:cjc040_1307"
    INDEX 01 00:53:04
  TRACK 34 AUDIO
    TITLE "17:cjc040_1308"
    INDEX 01 00:56:49
  TRACK 35 AUDIO
    TITLE "0:"
    INDEX 01 01:00:23
  TRACK 36 AUDIO
    TITLE "15:cjc040_1309"
    INDEX 01 01:01:01
  TRACK 37 AUDIO
    TITLE "0:"
    INDEX 01 01:02:32
  TRACK 38 AUDIO
    TITLE "16:cjc040_1310"
    INDEX 01 01:03:14
  TRACK 39 AUDIO
    TITLE "0:"
    INDEX 01 01:04:62
  TRACK 40 AUDIO
    TITLE "17:cjc040_1311"
    INDEX 01 01:05:42
  TRACK 41 AUDIO
    TITLE "17:cjc040_1312"
    INDEX 01 01:09:63
  TRACK 42 AUDIO
    TITLE "0:"
    INDEX 01 01:13:22
  TRACK 43 AUDIO
    TITLE "15:cjc040_1313"
    INDEX 01 01:14:02
  TRACK 44 AUDIO
    TITLE "0:"
    INDEX 01 01:15:64
  TRACK 45 AUDIO
    TITLE "16:cjc040_1314"
    INDEX 01 01:16:42
  TRACK 46 AUDIO
    TITLE "0:"
    INDEX 01 01:18:07
  TRACK 47 AUDIO
    TITLE "17:cjc040_1315"
    INDEX 01 01:18:60
  TRACK 48 AUDIO
    TITLE "17:cjc040_1316"
    INDEX 01 01:20:57
  TRACK 49 AUDIO
    TITLE "0:"
    INDEX 01 01:24:04
  TRACK 50 AUDIO
    TITLE "15:cjc040_1317"
    INDEX 01 01:24:65
  TRACK 51 AUDIO
    TITLE "0:"
    INDEX 01 01:27:04
  TRACK 52 AUDIO
    TITLE "16:cjc040_1318"
    INDEX 01 01:27:59
  TRACK 53 AUDIO
    TITLE "0:"
    INDEX 01 01:30:20
  TRACK 54 AUDIO
    TITLE "17:cjc040_1319"
    INDEX 01 01:31:00
  TRACK 55 AUDIO
    TITLE "17:cjc040_1320"
    INDEX 01 01:33:42
  TRACK 56 AUDIO
    TITLE "0:"
    INDEX 01 01:37:26
  TRACK 57 AUDIO
    TITLE "15:cjc040_1321"
    INDEX 01 01:38:02
  TRACK 58 AUDIO
    TITLE "0:"
    INDEX 01 01:39:25
  TRACK 59 AUDIO
    TITLE "16:cjc040_1322"
    INDEX 01 01:40:03
  TRACK 60 AUDIO
    TITLE "0:"
    INDEX 01 01:41:28
  TRACK 61 AUDIO
    TITLE "17:cjc040_1323"
    INDEX 01 01:42:06
  TRACK 62 AUDIO
    TITLE "17:cjc040_1324"
    INDEX 01 01:44:34
  TRACK 63 AUDIO
    TITLE "0:"
    INDEX 01 01:46:31
  TRACK 64 AUDIO
    TITLE "15:cjc040_1325"
    INDEX 01 01:47:11
  TRACK 65 AUDIO
    TITLE "0:"
    INDEX 01 01:48:67
  TRACK 66 AUDIO
    TITLE "16:cjc040_1326"
    INDEX 01 01:49:49
  TRACK 67 AUDIO
    TITLE "0:"
    INDEX 01 01:52:08
  TRACK 68 AUDIO
    TITLE "17:cjc040_1327"
    INDEX 01 01:52:55
  TRACK 69 AUDIO
    TITLE "17:cjc040_1328"
    INDEX 01 01:55:20
  TRACK 70 AUDIO
    TITLE "0:"
    INDEX 01 01:58:52
